<svg xmlns="http://www.w3.org/2000/svg" width="48" height="31.5" viewBox="0 0 48 31.5">
  <g id="Group_6" data-name="Group 6" transform="translate(-838 -528)">
    <path id="Icon_ionic-ios-cog" data-name="Icon ionic-ios-cog" d="M23.6,13.027l-1.291-.208a.393.393,0,0,1-.326-.336c-.025-.158-.049-.317-.084-.47a.4.4,0,0,1,.193-.425l1.142-.633a.4.4,0,0,0,.193-.49l-.2-.544a.393.393,0,0,0-.465-.247l-1.281.247a.4.4,0,0,1-.425-.2q-.111-.208-.237-.415a.4.4,0,0,1,.035-.47l.856-.984a.393.393,0,0,0,.015-.524l-.371-.445a.39.39,0,0,0-.519-.074l-1.123.673a.4.4,0,0,1-.465-.045c-.119-.1-.242-.208-.366-.307a.394.394,0,0,1-.124-.45l.465-1.222a.4.4,0,0,0-.163-.5l-.5-.292a.394.394,0,0,0-.514.109L17.218,5.8a.353.353,0,0,1-.42.124s-.277-.114-.485-.183a.393.393,0,0,1-.272-.381l.02-1.306a.4.4,0,0,0-.326-.415l-.574-.1a.4.4,0,0,0-.45.277l-.425,1.236a.4.4,0,0,1-.386.267c-.079,0-.163,0-.242,0s-.163,0-.242,0a.4.4,0,0,1-.386-.267L12.6,3.818a.4.4,0,0,0-.45-.277l-.574.1a.4.4,0,0,0-.326.415l.02,1.306A.4.4,0,0,1,11,5.742c-.114.045-.361.138-.48.183a.394.394,0,0,1-.435-.143l-.816-1a.394.394,0,0,0-.514-.109l-.5.292a.391.391,0,0,0-.163.5l.465,1.222a.4.4,0,0,1-.124.45c-.124.1-.247.2-.366.307a.4.4,0,0,1-.465.045L6.491,6.8a.4.4,0,0,0-.519.074L5.6,7.32a.393.393,0,0,0,.015.524l.856.984a.394.394,0,0,1,.035.47q-.126.2-.237.415a.4.4,0,0,1-.425.2L4.562,9.669a.4.4,0,0,0-.465.247l-.2.544a.4.4,0,0,0,.193.49l1.142.633a.392.392,0,0,1,.193.425c-.03.158-.059.312-.084.47a.4.4,0,0,1-.326.336l-1.291.208a.4.4,0,0,0-.351.391v.579a.388.388,0,0,0,.351.391l1.291.208a.393.393,0,0,1,.326.336c.025.158.049.317.084.47a.4.4,0,0,1-.193.425l-1.142.633a.4.4,0,0,0-.193.49l.2.544a.393.393,0,0,0,.465.247l1.281-.247a.4.4,0,0,1,.425.2q.111.208.237.415a.4.4,0,0,1-.035.47l-.856.984a.393.393,0,0,0-.015.524l.371.445a.39.39,0,0,0,.519.074l1.123-.673a.4.4,0,0,1,.465.045c.119.1.242.208.366.307a.394.394,0,0,1,.124.45L8.1,21.954a.4.4,0,0,0,.163.5l.5.292a.394.394,0,0,0,.514-.109l.831-1.019a.363.363,0,0,1,.406-.129c.168.069.282.109.49.178a.393.393,0,0,1,.272.381l-.02,1.306a.4.4,0,0,0,.326.415l.574.1a.4.4,0,0,0,.45-.277l.425-1.236a.4.4,0,0,1,.386-.267c.079,0,.163,0,.242,0s.163,0,.242,0a.4.4,0,0,1,.386.267l.425,1.236a.4.4,0,0,0,.45.277l.574-.1a.4.4,0,0,0,.326-.415l-.02-1.306a.393.393,0,0,1,.272-.381c.208-.069.346-.124.475-.173a.344.344,0,0,1,.41.1l.841,1.034a.394.394,0,0,0,.514.109l.5-.292a.391.391,0,0,0,.163-.5l-.465-1.222a.4.4,0,0,1,.124-.45c.124-.1.247-.2.366-.307a.4.4,0,0,1,.465-.045l1.123.673a.4.4,0,0,0,.519-.074l.371-.445a.393.393,0,0,0-.015-.524l-.856-.984a.394.394,0,0,1-.035-.47q.126-.2.237-.415a.4.4,0,0,1,.425-.2l1.281.247a.4.4,0,0,0,.465-.247l.2-.544a.4.4,0,0,0-.193-.49L22.1,15.816a.392.392,0,0,1-.193-.425c.03-.158.059-.312.084-.47a.4.4,0,0,1,.326-.336l1.291-.208a.4.4,0,0,0,.351-.391v-.579A.407.407,0,0,0,23.6,13.027ZM9.992,18.7a.8.8,0,0,1-1.236.178A7.129,7.129,0,0,1,8.741,8.561a.794.794,0,0,1,1.236.173l2.77,4.777a.4.4,0,0,1,0,.4Zm10.593-3.323a7.129,7.129,0,0,1-8.932,5.168.789.789,0,0,1-.46-1.152L13.949,14.6a.393.393,0,0,1,.341-.2h5.524A.79.79,0,0,1,20.586,15.376Zm-.767-2.359H14.29a.387.387,0,0,1-.341-.2L11.174,8.037a.793.793,0,0,1,.455-1.157,7.138,7.138,0,0,1,8.956,5.163A.789.789,0,0,1,19.819,13.017Z" transform="translate(834.625 524.465)"/>
    <path id="Path_62" data-name="Path 62" d="M-.422-.641c2.49,2.036,2.86,13.68,8.123,10.929" transform="translate(852.634 546.171)" fill="none" stroke="#000" stroke-width="1"/>
    <g id="Ellipse_111" data-name="Ellipse 111" transform="translate(859 549)" fill="#fff" stroke="#000" stroke-width="1">
      <circle cx="5.25" cy="5.25" r="5.25" stroke="none"/>
      <circle cx="5.25" cy="5.25" r="4.75" fill="none"/>
    </g>
    <path id="Icon_ionic-md-cog" data-name="Icon ionic-md-cog" d="M6.75,4.821V4.179H6.4a1.947,1.947,0,0,0-.093-.352l.3-.174L6.288,3.1l-.3.174a1.944,1.944,0,0,0-.257-.257l.174-.3-.556-.321-.174.3A1.867,1.867,0,0,0,4.821,2.6V2.25H4.179V2.6a1.947,1.947,0,0,0-.352.093l-.174-.3L3.1,2.712l.174.3a1.944,1.944,0,0,0-.257.257l-.3-.174-.321.556.3.174a1.867,1.867,0,0,0-.093.352H2.25v.643H2.6a1.947,1.947,0,0,0,.093.352l-.3.174.321.556.3-.174a1.944,1.944,0,0,0,.257.257l-.174.3.556.321.174-.3a1.867,1.867,0,0,0,.352.093V6.75h.643V6.4a1.947,1.947,0,0,0,.352-.093l.174.3L5.9,6.288l-.174-.3a1.944,1.944,0,0,0,.257-.257l.3.174.321-.556-.3-.174A1.867,1.867,0,0,0,6.4,4.821ZM4.5,4.179a.321.321,0,1,1-.321.321A.321.321,0,0,1,4.5,4.179Zm-1.153,1.2A1.443,1.443,0,0,1,3.054,4.5a1.533,1.533,0,0,1,.011-.181l.471.172V4.5a.966.966,0,0,0,.134.49Zm.409-1.487-.471-.172a1.445,1.445,0,0,1,.894-.626v.5A.972.972,0,0,0,3.756,3.887ZM4.5,5.946a1.437,1.437,0,0,1-.661-.16L4.161,5.4a.966.966,0,0,0,.677,0l.322.384A1.437,1.437,0,0,1,4.5,5.946Zm.321-2.355v-.5a1.445,1.445,0,0,1,.894.626l-.471.172A.972.972,0,0,0,4.821,3.591Zm.832,1.783L5.331,4.99a.966.966,0,0,0,.134-.49V4.491l.471-.172a1.533,1.533,0,0,1,.011.181A1.443,1.443,0,0,1,5.653,5.374Z" transform="translate(859.75 549.75)"/>
    <line id="Line_68" data-name="Line 68" x2="18" transform="translate(868 555)" fill="none" stroke="#000" stroke-width="1"/>
    <line id="Line_69" data-name="Line 69" y1="4.5" transform="translate(879.25 550.5)" fill="none" stroke="#000" stroke-width="1"/>
    <line id="Line_70" data-name="Line 70" y1="6" transform="translate(882.25 549)" fill="none" stroke="#000" stroke-width="1"/>
    <line id="Line_71" data-name="Line 71" y1="7.5" transform="translate(885.25 547.5)" fill="none" stroke="#000" stroke-width="1"/>
  </g>
</svg>
