<svg xmlns="http://www.w3.org/2000/svg" width="32" height="21" viewBox="0 0 32 21">
  <g id="Group_6" data-name="Group 6" transform="translate(-838 -528)">
    <path id="Icon_ionic-ios-cog" data-name="Icon ionic-ios-cog" d="M16.857,9.863,16,9.725a.262.262,0,0,1-.218-.224c-.016-.106-.033-.211-.056-.313a.266.266,0,0,1,.129-.284l.762-.422a.264.264,0,0,0,.129-.326l-.132-.363a.262.262,0,0,0-.31-.165l-.854.165a.265.265,0,0,1-.284-.135Q15.088,7.519,15,7.38a.268.268,0,0,1,.023-.313l.57-.656a.262.262,0,0,0,.01-.349l-.247-.3a.26.26,0,0,0-.346-.049l-.748.448a.263.263,0,0,1-.31-.03c-.079-.069-.162-.138-.244-.2a.263.263,0,0,1-.082-.3l.31-.814a.264.264,0,0,0-.109-.333l-.336-.195a.263.263,0,0,0-.343.073l-.547.686a.236.236,0,0,1-.28.082s-.185-.076-.323-.122a.262.262,0,0,1-.181-.254l.013-.87a.266.266,0,0,0-.218-.277l-.382-.066a.266.266,0,0,0-.3.185l-.284.824a.263.263,0,0,1-.257.178c-.053,0-.109,0-.162,0s-.109,0-.162,0a.266.266,0,0,1-.257-.178l-.284-.824a.266.266,0,0,0-.3-.185l-.382.066a.266.266,0,0,0-.218.277l.013.87a.264.264,0,0,1-.181.254l-.32.122a.263.263,0,0,1-.29-.1l-.544-.669a.263.263,0,0,0-.343-.073l-.336.195a.261.261,0,0,0-.109.333l.31.814a.265.265,0,0,1-.082.3c-.082.066-.165.135-.244.2a.263.263,0,0,1-.31.03l-.739-.455a.264.264,0,0,0-.346.049l-.247.3a.262.262,0,0,0,.01.349l.57.656a.262.262,0,0,1,.023.313q-.084.134-.158.277a.268.268,0,0,1-.284.135l-.854-.165a.265.265,0,0,0-.31.165l-.132.363a.264.264,0,0,0,.129.326l.762.422a.261.261,0,0,1,.129.284c-.02.106-.04.208-.056.313a.266.266,0,0,1-.218.224l-.861.138a.266.266,0,0,0-.234.26v.386a.259.259,0,0,0,.234.26l.861.138a.262.262,0,0,1,.218.224c.016.106.033.211.056.313a.266.266,0,0,1-.129.284l-.762.422a.264.264,0,0,0-.129.326l.132.363a.262.262,0,0,0,.31.165l.854-.165a.265.265,0,0,1,.284.135q.074.138.158.277a.268.268,0,0,1-.023.313l-.57.656a.262.262,0,0,0-.01.349l.247.3a.26.26,0,0,0,.346.049l.748-.448a.263.263,0,0,1,.31.03c.079.069.162.138.244.2a.263.263,0,0,1,.082.3l-.31.814a.264.264,0,0,0,.109.333l.336.195a.263.263,0,0,0,.343-.073l.554-.679a.242.242,0,0,1,.27-.086c.112.046.188.073.326.119a.262.262,0,0,1,.181.254l-.013.87a.266.266,0,0,0,.218.277l.382.066a.266.266,0,0,0,.3-.185l.284-.824a.263.263,0,0,1,.257-.178c.053,0,.109,0,.162,0s.109,0,.162,0a.266.266,0,0,1,.257.178l.284.824a.266.266,0,0,0,.3.185l.382-.066a.266.266,0,0,0,.218-.277l-.013-.87a.262.262,0,0,1,.181-.254c.138-.046.231-.082.317-.115a.23.23,0,0,1,.274.069l.56.689a.263.263,0,0,0,.343.073l.336-.195a.261.261,0,0,0,.109-.333L13.635,15a.265.265,0,0,1,.082-.3c.082-.066.165-.135.244-.2a.263.263,0,0,1,.31-.03l.748.448a.264.264,0,0,0,.346-.049l.247-.3a.262.262,0,0,0-.01-.349l-.57-.656a.262.262,0,0,1-.023-.313q.084-.134.158-.277a.268.268,0,0,1,.284-.135l.854.165a.265.265,0,0,0,.31-.165l.132-.363a.264.264,0,0,0-.129-.326l-.762-.422a.261.261,0,0,1-.129-.284c.02-.106.04-.208.056-.313A.266.266,0,0,1,16,10.9l.861-.138a.266.266,0,0,0,.234-.26v-.386A.271.271,0,0,0,16.857,9.863Zm-9.07,3.782a.531.531,0,0,1-.824.119,4.753,4.753,0,0,1-.01-6.878A.529.529,0,0,1,7.777,7l1.846,3.185a.269.269,0,0,1,0,.264Zm7.062-2.216a4.753,4.753,0,0,1-5.954,3.445.526.526,0,0,1-.307-.768l1.836-3.195a.262.262,0,0,1,.227-.132h3.683A.526.526,0,0,1,14.849,11.429Zm-.511-1.573H10.652a.258.258,0,0,1-.227-.132L8.574,6.536a.529.529,0,0,1,.3-.772,4.758,4.758,0,0,1,5.971,3.442A.526.526,0,0,1,14.338,9.856Z" transform="translate(834.625 524.465)"/>
    <path id="Path_62" data-name="Path 62" d="M-.422-.641C1.238.716,1.485,8.479,4.993,6.645" transform="translate(847.896 540.327)" fill="none" stroke="#000" stroke-width="1"/>
    <g id="Ellipse_111" data-name="Ellipse 111" transform="translate(852 542)" fill="#fff" stroke="#000" stroke-width="1">
      <circle cx="3.5" cy="3.5" r="3.5" stroke="none"/>
      <circle cx="3.5" cy="3.5" r="3" fill="none"/>
    </g>
    <path id="Icon_ionic-md-cog" data-name="Icon ionic-md-cog" d="M5.25,3.964V3.536H5.018A1.3,1.3,0,0,0,4.955,3.3l.2-.116-.214-.371-.2.116a1.3,1.3,0,0,0-.171-.171l.116-.2-.371-.214-.116.2a1.245,1.245,0,0,0-.234-.062V2.25H3.536v.232a1.3,1.3,0,0,0-.234.062l-.116-.2-.371.214.116.2a1.3,1.3,0,0,0-.171.171l-.2-.116-.214.371.2.116a1.245,1.245,0,0,0-.062.234H2.25v.429h.232a1.3,1.3,0,0,0,.062.234l-.2.116.214.371.2-.116a1.3,1.3,0,0,0,.171.171l-.116.2.371.214.116-.2a1.245,1.245,0,0,0,.234.062V5.25h.429V5.018A1.3,1.3,0,0,0,4.2,4.955l.116.2.371-.214-.116-.2a1.3,1.3,0,0,0,.171-.171l.2.116.214-.371-.2-.116a1.245,1.245,0,0,0,.062-.234Zm-1.5-.429a.214.214,0,1,1-.214.214A.214.214,0,0,1,3.75,3.536Zm-.769.8a.962.962,0,0,1-.2-.583,1.022,1.022,0,0,1,.007-.121l.314.115V3.75a.644.644,0,0,0,.089.327Zm.273-.991L2.94,3.227a.963.963,0,0,1,.6-.417v.334A.648.648,0,0,0,3.254,3.342Zm.5,1.373a.958.958,0,0,1-.441-.106l.215-.256a.644.644,0,0,0,.451,0l.215.256A.958.958,0,0,1,3.75,4.714Zm.214-1.57V2.81a.963.963,0,0,1,.6.417l-.314.115A.648.648,0,0,0,3.964,3.144Zm.554,1.189L4.3,4.077a.644.644,0,0,0,.089-.327V3.744l.314-.115a1.022,1.022,0,0,1,.007.121A.962.962,0,0,1,4.519,4.333Z" transform="translate(851.75 541.75)"/>
    <line id="Line_68" data-name="Line 68" x2="12" transform="translate(858 546)" fill="none" stroke="#000" stroke-width="1"/>
    <line id="Line_69" data-name="Line 69" y1="3" transform="translate(865.5 543)" fill="none" stroke="#000" stroke-width="1"/>
    <line id="Line_70" data-name="Line 70" y1="4" transform="translate(867.5 542)" fill="none" stroke="#000" stroke-width="1"/>
    <line id="Line_71" data-name="Line 71" y1="5" transform="translate(869.5 541)" fill="none" stroke="#000" stroke-width="1"/>
  </g>
</svg>
