<svg xmlns="http://www.w3.org/2000/svg" width="32" height="32" viewBox="0 0 32 32">
  <g id="Icon_ionic-ios-stats" data-name="Icon ionic-ios-stats" transform="translate(-5.625 -4.5)">
    <path id="Path_54" data-name="Path 54" d="M13.042,36.5h4a.669.669,0,0,0,.667-.667V5.167a.669.669,0,0,0-.667-.667h-4a.669.669,0,0,0-.667.667V35.833A.669.669,0,0,0,13.042,36.5Z" transform="translate(2.139)"/>
    <path id="Path_55" data-name="Path 55" d="M6.292,33.583h4a.669.669,0,0,0,.667-.667v-12a.669.669,0,0,0-.667-.667h-4a.669.669,0,0,0-.667.667v12A.669.669,0,0,0,6.292,33.583Z" transform="translate(0 2.917)"/>
    <path id="Path_56" data-name="Path 56" d="M19.8,34.417h3.983a.672.672,0,0,0,.675-.675V16.425a.672.672,0,0,0-.675-.675H19.8a.672.672,0,0,0-.675.675V33.742A.672.672,0,0,0,19.8,34.417Z" transform="translate(4.278 2.083)"/>
    <path id="Path_57" data-name="Path 57" d="M25.875,9.675V34.992a.672.672,0,0,0,.675.675h3.983a.672.672,0,0,0,.675-.675V9.675A.672.672,0,0,0,30.533,9H26.55A.672.672,0,0,0,25.875,9.675Z" transform="translate(6.417 0.833)"/>
  </g>
</svg>
