<svg xmlns="http://www.w3.org/2000/svg" width="15.193" height="32" viewBox="0 0 15.193 32">
  <g id="Group_5" data-name="Group 5" transform="translate(-200.806 -496)">
    <g id="Icon_ionic-ios-man" data-name="Icon ionic-ios-man" transform="translate(190.822 494.875)">
      <path id="Path_58" data-name="Path 58" d="M17.812,7.165H17.8a3.02,3.02,0,1,1,3.033-3.02,3.027,3.027,0,0,1-3.02,3.02Z" transform="translate(-0.248 0)"/>
      <path id="Path_59" data-name="Path 59" d="M15.264,33.486a1.822,1.822,0,0,1-1.8-2.027l.067-18.507h-.667v7a1.617,1.617,0,0,1-.427,1.22,1.417,1.417,0,0,1-2.027,0,1.606,1.606,0,0,1-.427-1.22V11.846a3.851,3.851,0,0,1,.92-2.56,3.4,3.4,0,0,1,2.6-1.2h8.153a3.389,3.389,0,0,1,2.6,1.207,3.834,3.834,0,0,1,.92,2.553v8.107a1.58,1.58,0,0,1-.44,1.22,1.5,1.5,0,0,1-2.067,0,1.58,1.58,0,0,1-.44-1.22v-7h-.6V31.459a1.847,1.847,0,1,1-3.68.04V22.086h-.8v9.393A1.9,1.9,0,0,1,15.264,33.486Z" transform="translate(0 -0.361)"/>
    </g>
    <path id="Icon_awesome-cogs" data-name="Icon awesome-cogs" d="M2.4.97l-.038.072a.056.056,0,0,1-.071.027A.511.511,0,0,1,2.14.976.066.066,0,0,1,2.127.9L2.166.825A.444.444,0,0,1,2.091.686H2.014A.059.059,0,0,1,1.957.634a.61.61,0,0,1,0-.187A.06.06,0,0,1,2.014.395h.077A.444.444,0,0,1,2.166.257L2.127.185A.065.065,0,0,1,2.14.106a.517.517,0,0,1,.15-.094.056.056,0,0,1,.071.027L2.4.111a.388.388,0,0,1,.149,0L2.587.039A.056.056,0,0,1,2.658.012a.511.511,0,0,1,.15.094.066.066,0,0,1,.013.079L2.783.257a.444.444,0,0,1,.075.138h.077a.059.059,0,0,1,.057.052.61.61,0,0,1,0,.187.06.06,0,0,1-.057.052H2.858a.444.444,0,0,1-.075.138L2.821.9a.065.065,0,0,1-.013.079.517.517,0,0,1-.15.094.056.056,0,0,1-.071-.027L2.549.97A.388.388,0,0,1,2.4.97Zm-.049-.3C2.531.823,2.737.6,2.6.408,2.418.258,2.212.48,2.351.674ZM1.81,1.45l.158.085a.126.126,0,0,1,.049.147,1.2,1.2,0,0,1-.2.332.107.107,0,0,1-.142.027l-.136-.085a.794.794,0,0,1-.257.16v.169A.119.119,0,0,1,1.19,2.4a.981.981,0,0,1-.356,0A.119.119,0,0,1,.74,2.284V2.115a.8.8,0,0,1-.257-.16l-.136.084A.107.107,0,0,1,.2,2.012a1.2,1.2,0,0,1-.2-.331.126.126,0,0,1,.049-.147L.212,1.45a.938.938,0,0,1,0-.32L.056,1.045A.125.125,0,0,1,.006.9,1.2,1.2,0,0,1,.2.567.107.107,0,0,1,.346.54L.483.625A.794.794,0,0,1,.74.465V.3A.118.118,0,0,1,.832.177a1,1,0,0,1,.356,0A.119.119,0,0,1,1.282.3V.465a.8.8,0,0,1,.257.16L1.676.54a.107.107,0,0,1,.142.027,1.2,1.2,0,0,1,.2.332.125.125,0,0,1-.047.147l-.158.085A.941.941,0,0,1,1.81,1.45Zm-.551.106c.278-.388-.135-.831-.5-.533C.486,1.411.9,1.854,1.259,1.556ZM2.4,2.477l-.038.072a.056.056,0,0,1-.071.027.511.511,0,0,1-.15-.094A.066.066,0,0,1,2.127,2.4l.038-.072a.444.444,0,0,1-.075-.138H2.014a.059.059,0,0,1-.057-.052.61.61,0,0,1,0-.187A.06.06,0,0,1,2.014,1.9h.077a.444.444,0,0,1,.075-.138l-.038-.072a.065.065,0,0,1,.013-.079.517.517,0,0,1,.15-.094.056.056,0,0,1,.071.027l.038.072a.388.388,0,0,1,.149,0l.038-.072a.056.056,0,0,1,.071-.027.511.511,0,0,1,.15.094.066.066,0,0,1,.013.079l-.038.072a.444.444,0,0,1,.075.138h.077a.059.059,0,0,1,.057.052.61.61,0,0,1,0,.187.06.06,0,0,1-.057.052H2.858a.444.444,0,0,1-.075.138l.038.072a.065.065,0,0,1-.013.079.517.517,0,0,1-.15.094.056.056,0,0,1-.071-.027l-.038-.072A.388.388,0,0,1,2.4,2.477Zm-.049-.3c.18.149.386-.072.248-.266C2.418,1.765,2.212,1.986,2.351,2.18Z" transform="translate(206.8 497.792)" fill="#fff"/>
  </g>
</svg>
