<svg xmlns="http://www.w3.org/2000/svg" width="32" height="32" viewBox="0 0 32 32">
  <path id="Icon_awesome-microchip" data-name="Icon awesome-microchip" d="M26,3V29a3,3,0,0,1-3,3H9a3,3,0,0,1-3-3V3A3,3,0,0,1,9,0H23A3,3,0,0,1,26,3Zm6,3.625v.75a.375.375,0,0,1-.375.375H30.5v.375a.375.375,0,0,1-.375.375H27.5v-3h2.625a.375.375,0,0,1,.375.375V6.25h1.125A.375.375,0,0,1,32,6.625Zm0,6v.75a.375.375,0,0,1-.375.375H30.5v.375a.375.375,0,0,1-.375.375H27.5v-3h2.625a.375.375,0,0,1,.375.375v.375h1.125a.375.375,0,0,1,.375.375Zm0,6v.75a.375.375,0,0,1-.375.375H30.5v.375a.375.375,0,0,1-.375.375H27.5v-3h2.625a.375.375,0,0,1,.375.375v.375h1.125A.375.375,0,0,1,32,18.625Zm0,6v.75a.375.375,0,0,1-.375.375H30.5v.375a.375.375,0,0,1-.375.375H27.5v-3h2.625a.375.375,0,0,1,.375.375v.375h1.125a.375.375,0,0,1,.375.375ZM1.875,23.5H4.5v3H1.875a.375.375,0,0,1-.375-.375V25.75H.375A.375.375,0,0,1,0,25.375v-.75a.375.375,0,0,1,.375-.375H1.5v-.375A.375.375,0,0,1,1.875,23.5Zm0-6H4.5v3H1.875a.375.375,0,0,1-.375-.375V19.75H.375A.375.375,0,0,1,0,19.375v-.75a.375.375,0,0,1,.375-.375H1.5v-.375A.375.375,0,0,1,1.875,17.5Zm0-6H4.5v3H1.875a.375.375,0,0,1-.375-.375V13.75H.375A.375.375,0,0,1,0,13.375v-.75a.375.375,0,0,1,.375-.375H1.5v-.375A.375.375,0,0,1,1.875,11.5Zm0-6H4.5v3H1.875A.375.375,0,0,1,1.5,8.125V7.75H.375A.375.375,0,0,1,0,7.375v-.75A.375.375,0,0,1,.375,6.25H1.5V5.875A.375.375,0,0,1,1.875,5.5Z"/>
</svg>
