<svg xmlns="http://www.w3.org/2000/svg" width="26.182" height="32" viewBox="0 0 26.182 32">
  <g id="Icon_ionic-md-switch" data-name="Icon ionic-md-switch" transform="translate(-7.875 -5.625)">
    <path id="Path_60" data-name="Path 60" d="M12.966,17.989h8.627a7.273,7.273,0,1,0,0-10.182H12.966a5.091,5.091,0,1,0,0,10.182ZM11.43,11.361a2.162,2.162,0,0,1,1.536-.645h6.882a7.244,7.244,0,0,0,0,4.364H12.966a2.173,2.173,0,0,1-1.536-3.718Z" transform="translate(0)"/>
    <path id="Path_61" data-name="Path 61" d="M28.966,21.307H20.339a7.273,7.273,0,1,0,0,10.182h8.627a5.091,5.091,0,0,0,0-10.182ZM30.5,27.934a2.162,2.162,0,0,1-1.536.645H22.084a7.244,7.244,0,0,0,0-4.364h6.882A2.173,2.173,0,0,1,30.5,27.934Z" transform="translate(0 3.955)"/>
  </g>
</svg>
