<svg xmlns="http://www.w3.org/2000/svg" width="32" height="32" viewBox="0 0 32 32">
  <path id="Path_53" data-name="Path 53" d="M83.938,111.689a16.617,16.617,0,0,0-15.9,11.251h2.356a13.322,13.322,0,0,1,.876-1.861H75.8a18.648,18.648,0,0,0-.5,1.861h2.3a17.316,17.316,0,0,1,.579-1.861h4.376v1.861h2.218v-1.861h4.728a16.17,16.17,0,0,1,.649,1.861h2.3a18.113,18.113,0,0,0-.554-1.861h4.708a13.317,13.317,0,0,1,.876,1.861h2.351A16.61,16.61,0,0,0,83.938,111.689Zm3.347,2.573a14.483,14.483,0,0,1,7.777,4.629H90.948A15.378,15.378,0,0,0,87.284,114.262Zm-7.342.161a14.536,14.536,0,0,0-3.267,4.468H72.814A14.454,14.454,0,0,1,79.943,114.423Zm4.837.7a12.68,12.68,0,0,1,3.579,3.765H84.779Zm-2.218.015v3.75H79.22A11.633,11.633,0,0,1,82.562,115.141ZM68.7,125.054a.957.957,0,0,0-.554.151.448.448,0,0,0-.223.376,1.427,1.427,0,0,0,.1.459l1.178,3.34c.036.1.077.212.124.332a1.138,1.138,0,0,0,.188.317.774.774,0,0,0,.312.215,1.329,1.329,0,0,0,.5.078,1.145,1.145,0,0,0,.589-.132.8.8,0,0,0,.312-.288,5.209,5.209,0,0,0,.218-.493l1.054-2.93,1.05,2.945c.087.218.157.379.213.483a.78.78,0,0,0,.307.288,1.177,1.177,0,0,0,.594.127,1.16,1.16,0,0,0,.609-.132.792.792,0,0,0,.3-.3,4.8,4.8,0,0,0,.2-.508l1.178-3.34a1.586,1.586,0,0,0,.109-.459.445.445,0,0,0-.228-.376.963.963,0,0,0-.55-.151.881.881,0,0,0-.5.117.672.672,0,0,0-.238.259,2.707,2.707,0,0,0-.134.366l-.832,2.842-.931-2.661a4.944,4.944,0,0,0-.213-.488.845.845,0,0,0-.312-.3,1.2,1.2,0,0,0-.629-.137,1.262,1.262,0,0,0-.629.132.855.855,0,0,0-.332.308,3.519,3.519,0,0,0-.213.483l-.926,2.661-.837-2.862a1.615,1.615,0,0,0-.252-.523.738.738,0,0,0-.609-.2Zm11.4,0a.957.957,0,0,0-.554.151.448.448,0,0,0-.223.376,1.464,1.464,0,0,0,.109.459l1.178,3.34c.036.1.077.212.124.332a1.126,1.126,0,0,0,.183.317.774.774,0,0,0,.312.215,1.33,1.33,0,0,0,.5.078,1.165,1.165,0,0,0,.594-.132.786.786,0,0,0,.307-.288,5.207,5.207,0,0,0,.218-.493l1.054-2.93,1.05,2.945c.087.218.157.379.213.483a.78.78,0,0,0,.307.288,1.177,1.177,0,0,0,.594.127,1.16,1.16,0,0,0,.609-.132.792.792,0,0,0,.3-.3,4.8,4.8,0,0,0,.2-.508l1.178-3.34a1.587,1.587,0,0,0,.109-.459.445.445,0,0,0-.228-.376.963.963,0,0,0-.55-.151.881.881,0,0,0-.5.117.672.672,0,0,0-.238.259,2.707,2.707,0,0,0-.134.366l-.832,2.842-.931-2.661a4.944,4.944,0,0,0-.213-.488.826.826,0,0,0-.307-.3,1.2,1.2,0,0,0-.629-.137,1.283,1.283,0,0,0-.634.132.855.855,0,0,0-.332.308,3.518,3.518,0,0,0-.213.483l-.926,2.661-.837-2.862a1.613,1.613,0,0,0-.248-.523.75.75,0,0,0-.614-.2Zm11.4,0a.957.957,0,0,0-.554.151.448.448,0,0,0-.223.376,1.464,1.464,0,0,0,.109.459l1.178,3.34c.036.1.077.212.124.332a1.126,1.126,0,0,0,.183.317.774.774,0,0,0,.312.215,1.329,1.329,0,0,0,.5.078,1.165,1.165,0,0,0,.594-.132.786.786,0,0,0,.307-.288,4.972,4.972,0,0,0,.223-.493l1.05-2.93,1.049,2.945c.087.218.157.379.213.483a.78.78,0,0,0,.307.288,1.177,1.177,0,0,0,.594.127,1.16,1.16,0,0,0,.609-.132.792.792,0,0,0,.3-.3,4.8,4.8,0,0,0,.2-.508l1.178-3.34a1.587,1.587,0,0,0,.109-.459.44.44,0,0,0-.223-.376.98.98,0,0,0-.554-.151.881.881,0,0,0-.5.117.672.672,0,0,0-.238.259,2.707,2.707,0,0,0-.134.366l-.827,2.842-.936-2.661a4.942,4.942,0,0,0-.213-.488.826.826,0,0,0-.307-.3,1.2,1.2,0,0,0-.629-.137,1.283,1.283,0,0,0-.634.132.855.855,0,0,0-.332.308,3.519,3.519,0,0,0-.213.483l-.926,2.661-.832-2.862a1.615,1.615,0,0,0-.252-.523.75.75,0,0,0-.614-.2Zm-23.549,7.1a16.842,16.842,0,0,0,31.97,0H97.581a13.381,13.381,0,0,1-.8,1.821H92.027a18.413,18.413,0,0,0,.51-1.821H90.275a15.141,15.141,0,0,1-.579,1.821H84.779V132.15H82.562v1.821h-4.49a18.317,18.317,0,0,1-.525-1.821H75.27c.128.617.283,1.225.46,1.821H71.1a13.406,13.406,0,0,1-.807-1.821H67.953Zm4.6,4.009h3.975A13.885,13.885,0,0,0,79.8,140.92,14.41,14.41,0,0,1,72.552,136.159Zm6.446,0h3.564v4.087A10.465,10.465,0,0,1,79,136.159Zm5.782,0h3.812a12.051,12.051,0,0,1-3.812,3.985Zm6.361,0h4.183a14.453,14.453,0,0,1-8.149,4.986A14.759,14.759,0,0,0,91.141,136.159Z" transform="translate(-67.923 -111.689)"/>
</svg>
